<?xml version="1.0" encoding="UTF-8" standalone="yes"?><svg fill="none" stroke-opacity="1" xmlns="http://www.w3.org/2000/svg" xmlns:xlink="http://www.w3.org/1999/xlink" version="1.2" baseProfile="tiny" x="0" y="0" width="48" height="48" viewBox="0 0 48 48"><defs/><defs/><path fill="none" stroke="#c5b3b3" stroke-width="2" stroke-linejoin="round" stroke-linecap="round" stroke-opacity="1" d="M 19.036 44.0002 C 18.0561 40.8046 16.5778 38.4223 14.6011 36.8533 C 11.636 34.4998 6.92483 35.9625 5.18458 33.535 C 3.44433 31.1074 6.40382 26.6432 7.44234 24.0091 C 8.48086 21.3751 3.46179 20.4437 4.04776 19.6959 C 4.43842 19.1974 6.97471 17.7588 11.6567 15.3802 C 12.987 7.79356 17.9008 4.00024 26.3982 4.00024 C 39.1441 4.00024 44 14.8062 44 21.6791 C 44 28.5521 38.1201 35.9564 29.7441 37.5529 C 28.9951 38.6437 30.0754 40.7928 32.9848 44.0002"/><path fill="none" fill-rule="evenodd" stroke="#c5b3b3" stroke-width="2" stroke-linejoin="round" stroke-linecap="round" stroke-opacity="1" clip-rule="evenodd" d="M 19.4997 14.5001 C 18.8464 17.0344 19.0408 18.8139 20.0829 19.8386 C 21.125 20.8634 22.9011 21.5335 25.4112 21.849 C 24.8417 25.1177 25.5361 26.6512 27.4942 26.4494 C 29.4524 26.2476 30.6289 25.434 31.0239 24.0084 C 34.0842 24.8685 35.7428 24.1487 35.9997 21.849 C 36.3852 18.3994 34.525 15.6476 33.7624 15.6476 C 32.9997 15.6476 31.0239 15.5548 31.0239 14.5001 C 31.0239 13.4453 28.7159 12.8494 26.6329 12.8494 C 24.5499 12.8494 25.8035 11.4453 22.9432 12.0001 C 21.0363 12.3699 19.8885 13.2032 19.4997 14.5001 Z"/><path fill="none" fill-rule="evenodd" stroke="#c5b3b3" stroke-width="2" stroke-linejoin="round" stroke-linecap="round" stroke-opacity="1" d="M 30.5002 25.5002 C 29.4833 26.1313 28.0878 27.1805 27.5002 28.0002 C 26.0313 30.0497 24.8398 31.2976 24.5791 32.6083"/></svg>
